<?xml version="1.0" standalone="no"?>
<!DOCTYPE svg PUBLIC "-//W3C//DTD SVG 20010904//EN"
 "http://www.w3.org/TR/2001/REC-SVG-20010904/DTD/svg10.dtd">
<svg version="1.0" xmlns="http://www.w3.org/2000/svg"
 width="260.000000pt" height="260.000000pt" viewBox="0 0 260.000000 260.000000"
 preserveAspectRatio="xMidYMid meet">
<metadata>
Created by potrace 1.11, written by Peter Selinger 2001-2013
</metadata>
<g transform="translate(0.000000,260.000000) scale(0.100000,-0.100000)"
fill="#000000" stroke="none">
<path d="M1295 1930 c-113 -24 -226 -59 -374 -116 -62 -24 -115 -43 -117 -41
-2 2 12 19 31 37 19 19 35 42 35 52 0 36 -29 22 -162 -78 -103 -79 -108 -86
-152 -233 -31 -104 -14 -147 53 -138 20 2 126 47 236 100 110 52 243 111 295
130 99 37 268 87 294 87 9 0 -17 -50 -75 -142 l-90 -143 -127 -67 c-157 -84
-192 -118 -192 -187 0 -28 5 -53 10 -56 6 -3 10 -13 10 -21 0 -8 -67 -101
-148 -207 -82 -106 -155 -203 -161 -215 -18 -33 -6 -70 24 -78 62 -15 221 109
243 189 6 21 43 75 86 126 l76 89 417 -229 c230 -126 427 -228 438 -227 52 7
58 131 10 194 -42 54 -74 76 -395 263 -330 191 -342 201 -306 255 12 19 120
78 377 207 199 99 367 178 374 175 46 -17 161 64 211 150 25 42 24 68 -2 78
-20 8 -74 -15 -428 -183 -164 -77 -302 -141 -307 -141 -5 0 20 42 56 94 93
134 96 168 24 249 l-41 47 -66 -1 c-37 0 -107 -9 -157 -19z"/>
</g>
</svg>
